<svg xmlns="http://www.w3.org/2000/svg" xmlns:xlink="http://www.w3.org/1999/xlink" width="234" height="211" viewBox="77 73 234 211">
<g transform="translate(79,75)">
<g transform="matrix(1,0,0,1,0,0)">
<path d="M170.16,0L178.57,0C179.21,0.39 180.35,0.25 181.11,0.38C199.97,3.6 212.76,18.42 222.02,34.16C224.19,37.83 226.5,41.54 227.89,45.7C228.46,47.35 228.91,49.04 229.25,50.75C229.43,51.69 229.77,53.9 230,54.69L230,62.79C229.41,65.23 229.23,67.33 228.46,69.82C225.42,79.68 219.56,87.26 210.82,92.6C209.22,93.57 207.54,94.43 205.81,95.16C204.94,95.53 203.54,96.01 202.79,96.4C209.13,106.78 207.17,113.86 202.82,124.36C201.34,127.92 200.18,131.82 198.63,135.41C201.98,140.3 204,145.02 204.14,151.07C204.28,156.67 204.19,162.3 204.19,167.9L204.2,175C204.21,179.49 204.16,183.6 199.66,186.18C191.36,190.93 179.72,190.99 170.4,190.52C164.2,190.22 156.73,188.31 151.9,184.28C149.59,184.93 147.18,185.1 144.8,185.33C142.14,185.58 139.5,186.02 136.86,186.44L115.85,189.86C109.02,190.97 103.18,192.57 96.27,190.56C96.3,194.44 96.23,197.45 93.24,200.46C89.13,204.6 82.07,205.67 76.55,206.43C76.12,206.49 72.39,206.96 72.25,207L60.34,207C59.5,206.66 57.96,206.83 56.96,206.67C52.21,205.86 47.54,205.14 43.19,202.94C36.85,199.73 36.34,196.73 36.36,190.24C36.37,187.37 36.37,184.5 36.36,181.63C36.35,180.68 36.5,178.24 36.19,177.53C35.2,176.71 29.03,177.46 27.31,177.22C25.95,177.04 23.73,177.24 22.3,177.03C15.78,176.09 5.97,174.92 2.64,168.3C1.81,166.66 1.98,162.64 1.99,160.72L2,152.24C2.01,146.62 1.75,140.51 2.36,134.95C2.7,131.91 3.77,129.03 4.93,126.22C3.79,123.69 2.27,121.3 1.29,118.68C0.74,117.21 0.55,115.59 0,114.17L0,107.89C0.75,105.41 1.16,102.9 2.49,100.59C4.13,97.77 6.13,94.97 7.97,92.27L17.25,78.68L27.14,64.13C28.91,61.54 31.07,58.14 33.02,55.81C34.53,54.04 36.32,52.53 38.31,51.33C40.8,49.85 43.56,48.87 46.42,48.43C49.22,48 54.66,47.96 57.77,47.77C68.11,47.12 78.46,46.61 88.81,46.26L109.99,45.19C112.7,45.06 116.4,44.67 119.03,44.71C121.47,44.74 126.61,45.57 128.94,46.15C129.46,44.3 129.85,41.82 130.31,39.85C131.22,35.88 132.49,32 134.1,28.25C139.19,16.24 148.05,6.5 160.55,2.21C162.67,1.48 164.83,0.91 167.03,0.49C167.87,0.32 169.5,0.31 170.16,0Z" fill="rgba(39,51,56,1.0000)"/>
</g>
<g transform="matrix(1,0,0,1,125.01270294189453,6.440274715423584)">
<path d="M47.01,0.12C63.22,-1.25 76.35,9.34 85.31,21.83C87.65,25.08 89.83,28.43 91.85,31.89C92.98,33.79 94.33,36 95.27,37.98C98.18,44.09 99.16,50.95 98.06,57.64C96.6,66.26 91.81,73.95 84.73,79.04C80.9,81.81 76.52,83.72 71.88,84.65C68.9,85.22 66.03,85.18 63.04,85.02C54.74,84.58 47.18,82 40.44,77.07C38.61,75.72 36.89,74.22 35.3,72.59C33.64,70.86 31.28,67.12 28.5,69.46C25.12,72.3 28.89,75.34 30.96,77.46C37.85,84.51 48.22,89.97 58.07,91.04C58.33,94.18 58.15,100.01 58,103.19C57.31,115.88 55.77,128.5 53.38,140.97C53.14,142.07 52.89,143.17 52.63,144.27C50.38,153.86 47.07,161.13 38.43,166.47C29.65,171.91 18.71,173.31 8.58,172.41C6.29,172.21 4.75,172.29 2.42,171.73C1.18,168.75 0.14,162.72 0.03,159.5C-0.28,150.31 1.74,143.92 7.88,137.19C8.32,138.83 8.77,141.18 9.93,142.44C11.95,144.6 15.64,142.43 15.18,139.56C14.88,137.64 14.21,135.83 13.88,133.97C11.42,120.04 9.31,105.91 8.15,91.8C7.6,83.78 7.59,75.98 7.87,67.94C8.54,48.96 10.01,26.16 23.36,11.39C29.19,4.94 38.33,0.43 47.01,0.12Z" fill="rgba(56,200,90,1.0000)"/>
</g>
<g transform="matrix(1,0,0,1,205.92025756835938,45.96686553955078)">
<path d="M5.31,0.09C8.81,-0.51 12.13,1.86 12.7,5.37C13.28,8.88 10.9,12.2 7.4,12.76C3.92,13.31 0.66,10.94 0.09,7.46C-0.49,3.98 1.85,0.69 5.31,0.09Z" fill="rgba(39,51,56,1.0000)"/>
</g>
<g transform="matrix(1,0,0,1,162.4927520751953,45.970157623291016)">
<path d="M5.26,0.1C8.75,-0.52 12.07,1.82 12.67,5.32C13.28,8.82 10.92,12.14 7.43,12.73C3.97,13.3 0.69,10.97 0.09,7.5C-0.5,4.02 1.81,0.72 5.26,0.1Z" fill="rgba(39,51,56,1.0000)"/>
</g>
<g transform="matrix(1,0,0,1,175.42922973632812,62.67930603027344)">
<path d="M17.67,0C18.24,0.09 21.27,2.15 22.06,2.55C25.36,4.23 28.3,4.04 31,1.42C31.37,1.14 32.54,0.08 32.96,0.04C34.46,-0.08 35.41,1.66 34.37,2.8C29.66,7.95 23.78,8.22 18.31,3.95L16.93,5.18C11.61,9.3 5.99,8.83 0.99,4.41C0.14,3.66 -0.5,2.21 0.54,1.41C2.01,0.28 4.2,2.96 5.49,3.59C6.79,4.21 7.85,4.73 9.31,4.76C12.98,4.82 15.25,2.29 17.67,0Z" fill="rgba(39,51,56,1.0000)"/>
</g>
<g transform="matrix(1,0,0,1,58.816505432128906,70.24040222167969)">
<path d="M15.88,0.07C17.69,-0.09 21.56,0.06 23.47,0.1C26.94,0.16 30.4,0.18 33.87,0.16L53,0.17C56.18,0.19 59.47,0.21 62.65,0.35C63.75,0.46 64.78,0.68 65.65,1.38C67.41,2.79 67.62,4.01 67.54,6.16C67.36,11.27 67.44,16.36 67.54,21.47C67.69,29.6 68.78,37.57 69.76,45.6C67.6,46.52 64.95,47.89 62.81,48.94L49.37,55.49C45.99,57.19 42.26,59.22 38.71,60.36C35.49,61.4 31.78,58.78 29.08,57.21L22.45,53.35L10.64,46.52C8.5,45.28 6.33,44.04 4.22,42.76C1.93,41.43 0.66,39.45 0.13,36.87C-0.46,34.06 1.12,31 2.08,28.36L5.6,18.82L9.34,8.65C10.1,6.58 10.85,4.27 11.91,2.33C12.69,0.91 14.38,0.35 15.88,0.07Z" fill="rgba(78,194,248,1.0000)"/>
</g>
<g transform="matrix(1,0,0,1,9.462711334228516,59.5306510925293)">
<path d="M34.04,0.06C38.02,-0.32 40.18,1.18 43.65,2.81L52.64,7.01C55.32,8.28 57.99,9.97 57.39,13.61C57.09,15.48 56.05,17.8 55.37,19.63L52.02,28.72L48.23,39.02C44.33,49.65 43.99,49.56 33.36,53.27L21.29,57.47C14.18,60.07 10.18,61.28 3.79,55.7C-0.4,52.04 -1.24,46.8 1.88,42.15C3.95,39.07 6.06,35.96 8.16,32.88L19.26,16.61L25.18,7.89C27.83,4 29.11,1.15 34.04,0.06Z" fill="rgba(78,194,248,1.0000)"/>
</g>
<g transform="matrix(1,0,0,1,42.96651077270508,141.99185180664062)">
<path d="M21.04,0.21C27.34,-0.81 35.52,2.03 39.93,6.62C46.97,13.94 46.81,21.46 46.8,30.93L46.77,44.33C42,42.16 38.31,43.23 35.43,47.61C31.28,44.22 26.87,44.79 23.28,48.61C22.52,47.41 21.41,46.71 20.22,46.03C17.56,44.63 13.26,45.61 11.23,47.79C8.51,50.72 8.96,53.43 8.99,57.08C5.75,56.27 2.07,55.4 0.04,52.56C-0.04,51.01 0.02,48.93 0.02,47.32L0.02,37.4L0.02,28.23C0.01,24.77 -0.14,21.93 0.57,18.52C1.29,14.95 2.8,11.6 4.99,8.71C9.23,3.2 14.36,1.06 21.04,0.21Z" fill="rgba(56,200,90,1.0000)"/>
</g>
<g transform="matrix(1,0,0,1,23.909236907958984,112.76309967041016)">
<path d="M28.82,0.03C33.28,-0.27 35.34,1.57 39.03,3.71L48.93,9.46L60.5,16.18C71.6,22.6 70.22,21.72 72.01,34.31L74.12,48.97L75.75,59.93C76.03,61.88 76.87,65.45 76.34,67.32C76.01,68.49 73.98,70.08 72.67,69.57C72.4,69.32 72.25,69.12 72.25,68.73C72.24,67.32 72.31,65.82 72.28,64.42C72.14,58.25 72.77,51.15 71.39,45.15C69.59,37.36 65.42,31.54 58.73,27.32C44.64,19.28 26.13,22.07 17.03,36.35C13.45,41.98 12.58,48.12 12.47,54.71C9.71,51.12 9.3,48.71 8.02,44.51C6.87,40.77 5.74,37.01 4.64,33.25L1.91,24.37C0.58,20.04 -1.34,15.67 1.39,11.43C2.19,10.2 3.27,9.18 4.54,8.46C6.1,7.58 12.24,5.6 14.22,4.9L21.72,2.28C24.13,1.42 26.32,0.56 28.82,0.03Z" fill="rgba(0,136,209,1.0000)"/>
</g>
<g transform="matrix(1,0,0,1,98.21317291259766,118.97272491455078)">
<path d="M30.54,0C30.61,0.05 30.68,0.1 30.75,0.14C31.58,4.48 32.42,13.3 33.36,17.25C21.22,27 18.45,40.42 21.41,55.32C21.82,57.38 22.37,59.66 23.24,61.58C20.39,62.21 17.43,62.63 14.54,63.11C11.79,63.56 9.27,64.19 6.96,62.25C4.9,60.05 4.73,55.32 4.31,52.34L2.46,39.31C1.88,35.53 1.32,31.75 0.79,27.97C0.55,26.29 0.27,24.51 0.07,22.88C-0.44,18.67 1.82,14.21 5.58,12.21C8.19,10.82 11.03,9.48 13.73,8.16C19.32,5.41 24.92,2.69 30.54,0Z" fill="rgba(0,136,209,1.0000)"/>
</g>
<g transform="matrix(1,0,0,1,52.4288444519043,52.81755447387695)">
<path d="M63.38,0.07C66.58,-0.23 72.08,0.5 75.26,1.23C75.23,3.28 74.82,5.79 74.63,7.86C74.42,10.07 74.3,12.18 74.17,14.39C70.37,14.88 65.93,14.68 62.04,14.63L45.62,14.43L30.42,14.43C24.73,14.43 19.61,14.88 14.27,12.51C9.94,10.63 5.51,8.4 1.24,6.37C0.13,5.85 -0.47,4.77 0.45,3.71C0.85,3.25 1.74,3.24 2.31,3.14C7.31,2.78 12.55,2.64 17.53,2.46C22.89,2.26 28.29,1.71 33.62,1.49L50.83,0.69C55.04,0.5 59.18,0.39 63.38,0.07Z" fill="rgba(177,229,251,1.0000)"/>
</g>
<g transform="matrix(1,0,0,1,7.966221809387207,134.01661682128906)">
<path d="M0.64,0C1.65,0.81 11.75,22.24 13.66,25.56C10.71,26.23 9.16,28.36 8.27,31.11C8.04,32.05 8.12,34.72 8.12,35.83C5.32,35.41 1.92,34.16 0.11,31.89C-0.11,27.71 0.07,22.17 0.07,17.86L0.07,9.36C0.07,6.45 -0.03,2.81 0.64,0Z" fill="rgba(56,200,90,1.0000)"/>
</g>
<g transform="matrix(1,0,0,1,183.84439086914062,143.00735473632812)">
<path d="M12.08,0C12.44,0.24 12.72,1.12 12.88,1.56C14.82,6.68 14.53,12.13 14.53,17.48L14.5,28.7C11.6,27.53 9.72,27.17 6.83,28.78C5.87,29.31 4.76,31.14 4.07,31.56L3.76,31.4C2.71,30.72 1.44,29.87 0.18,29.88L0,29.69C0.16,29.19 0.64,28.55 0.92,28.07C1.62,26.87 2.43,25.7 2.91,24.38C5.37,17.7 7.85,11.04 10.33,4.37C10.88,2.9 11.41,1.42 12.08,0Z" fill="rgba(56,200,90,1.0000)"/>
</g>
<g transform="matrix(1,0,0,1,8.979073524475098,116.27127075195312)">
<path d="M0,0C0.09,0.02 0.35,0.09 0.42,0.16C2.92,2.4 8.4,5.88 9.84,8.86C11.64,12.6 12.77,17.41 13.98,21.4C15.64,26.85 17.4,32.29 18.95,37.73C18.68,37.58 18.52,37.31 18.38,37.03C14.52,29.13 10.58,21.26 6.66,13.39L2.35,4.79C1.65,3.38 0.59,1.43 0,0Z" fill="rgba(0,136,209,1.0000)"/>
</g>
<g transform="matrix(1,0,0,1,55.00300598144531,190.5865936279297)">
<path d="M4.4,0.01C4.52,0.01 4.65,0 4.77,0C6,-0.01 7.35,0.49 8.23,1.37C8.84,1.98 9.27,2.74 9.48,3.57C9.78,4.79 9.63,10.08 9.62,11.67C8.31,11.64 7,11.55 5.69,11.42C3.84,11.31 1.7,10.84 0.12,10.85C0.14,6.15 -1.16,1.56 4.4,0.01Z" fill="rgba(255,255,255,1.0000)"/>
</g>
<g transform="matrix(1,0,0,1,67.99495697021484,190.58641052246094)">
<path d="M4.26,0.02C6.29,-0.17 8.54,1.12 9.14,3.05C9.82,5.23 9.59,8.55 9.58,10.84C8.46,10.85 6.28,11.19 5.1,11.34C3.44,11.47 1.71,11.63 0.05,11.67C0.03,9.61 -0.01,7.52 0,5.45C0.01,2.29 1.28,0.83 4.26,0.02Z" fill="rgba(255,255,255,1.0000)"/>
</g>
<g transform="matrix(1,0,0,1,80.73738861083984,188.4962158203125)">
<path d="M4.51,0.01C5.8,-0.09 7.27,0.34 8.18,1.3C9.99,3.22 9.77,5.64 9.75,8.09C7.9,9.49 6.73,10.1 4.62,10.96C3.14,11.53 1.68,11.87 0.15,12.24C0.32,7.44 -1.58,1.1 4.51,0.01Z" fill="rgba(255,255,255,1.0000)"/>
</g>
<g transform="matrix(1,0,0,1,178.31924438476562,175.74879455566406)">
<path d="M3.5,0.04C3.82,0.02 4.14,0 4.45,0C9.81,-0.02 8.85,6.21 8.84,9.78C8,9.83 6.06,10.17 5.11,10.29C3.7,10.43 1.62,10.34 0.02,10.44C0.01,8.71 -0.02,6.97 0.03,5.24C0.1,2.58 0.88,0.91 3.5,0.04Z" fill="rgba(255,255,255,1.0000)"/>
</g>
<g transform="matrix(1,0,0,1,190.0132598876953,173.7632598876953)">
<path d="M3.53,0.07C5,-0.14 6.41,0.08 7.52,1.16C9.18,2.78 8.91,5.32 8.9,7.44C7.22,8.67 6.37,9.08 4.48,9.93C3.14,10.45 1.55,10.85 0.15,11.24C0.19,7.24 -1.15,1.48 3.53,0.07Z" fill="rgba(255,255,255,1.0000)"/>
</g>
<g transform="matrix(1,0,0,1,185.40524291992188,114.85350036621094)">
<path d="M11.18,0L11.33,0.23C11.17,0.94 10.32,3 10.02,3.81L7.1,11.66L2.82,23.18C1.99,25.43 1.01,28.34 0.07,30.48C-0.14,30.24 0.2,28.87 0.29,28.47C1.54,22.69 1.63,15.24 3.62,9.82C4.57,7.22 9.23,2.31 11.18,0Z" fill="rgba(0,136,209,1.0000)"/>
</g>
<g transform="matrix(1,0,0,1,188.89410400390625,98.19171905517578)">
<path d="M0.74,0.01L3.99,0C4.17,1.52 4.67,3.3 4.86,4.91C5.34,9.03 4.39,14.61 2.32,18.2C1.61,19.28 0.95,19.83 0,20.66C0.84,14.22 0.75,6.46 0.74,0.01Z" fill="rgba(78,194,248,1.0000)"/>
</g>
<g transform="matrix(1,0,0,1,18.939449310302734,162.27000427246094)">
<path d="M3.8,0C4.29,0.09 4.67,1.38 4.92,1.88C5.77,3.65 6.62,5.38 7.7,7.02C8.25,7.85 9.47,9.46 8.9,10.47C8.24,10.59 6.38,10.42 5.62,10.37C3.86,10.27 1.81,10.13 0.1,9.77C0.04,5.87 -0.82,1.34 3.8,0Z" fill="rgba(255,255,255,1.0000)"/>
</g>
<g transform="matrix(1,0,0,1,166.61497497558594,179.48779296875)">
<path d="M8.5,0L8.74,0.07C8.87,0.88 8.8,5.63 8.8,6.71C5.79,6.37 4.46,6.81 0.92,6.12C0.61,6.09 0.57,6.1 0.26,5.98C-0.15,5.33 0.04,3.04 0.06,2.13C0.56,1.98 1.2,1.87 1.72,1.78C4.11,1.41 6.22,0.78 8.5,0Z" fill="rgba(255,255,255,1.0000)"/>
</g>
<g transform="matrix(1,0,0,1,161.02769470214844,182.15603637695312)">
<path d="M2.27,0C2.41,0.08 2.43,0.14 2.54,0.29C2.54,0.77 2.61,0.62 2.33,0.93C1.74,1.04 1.15,0.83 0.54,0.68C0.15,0.47 0.16,0.56 0,0.23C0.4,0.07 1.33,0.18 2.1,0.03L2.27,0Z" fill="rgba(56,200,90,1.0000)"/>
</g>
</g>
</svg>